<svg xmlns="http://www.w3.org/2000/svg" xmlns:xlink="http://www.w3.org/1999/xlink" viewBox="1 1 24 24" width="24" height="24"><defs><path d="M3.1 2C2.49 2 2 2.49 2 3.1v17.8c0 .61.49 1.1 1.1 1.1h9.58v-7.74h-2.6v-3.02h2.6V9.01c0-2.58 1.58-3.99 3.89-3.99 1.1 0 2.05.08 2.33.12v2.7h-1.6c-1.26 0-1.5.6-1.5 1.47v1.93h2.99l-.39 3.02h-2.6V22h5.1c.61 0 1.1-.49 1.1-1.1V3.1c0-.61-.49-1.1-1.1-1.1H3.1z" id="a"/></defs><use xlink:href="#a"/><use xlink:href="#a" fill-opacity="0" stroke="#000" stroke-opacity="0"/></svg>