<?xml version="1.0" encoding="UTF-8" standalone="no"?>
<!DOCTYPE svg PUBLIC "-//W3C//DTD SVG 1.1//EN" "http://www.w3.org/Graphics/SVG/1.1/DTD/svg11.dtd">
<svg version="1.1" xmlns="http://www.w3.org/2000/svg" xmlns:xlink="http://www.w3.org/1999/xlink" preserveAspectRatio="xMidYMid meet" viewBox="1 1 24 24.000000000000004" width="24" height="24"><defs><path d="M3.1 2C2.49 2 2 2.49 2 3.1C2 4.88 2 19.12 2 20.9C2 21.51 2.49 22 3.1 22C3.74 22 6.94 22 12.68 22L12.68 14.26L10.08 14.26L10.08 11.24L12.68 11.24C12.68 9.9 12.68 9.16 12.68 9.01C12.68 6.43 14.26 5.02 16.57 5.02C17.67 5.02 18.62 5.1 18.9 5.14C18.9 5.32 18.9 6.22 18.9 7.84C17.94 7.84 17.4 7.84 17.3 7.84C16.04 7.84 15.8 8.44 15.8 9.31C15.8 9.44 15.8 10.08 15.8 11.24L18.79 11.24L18.4 14.26L15.8 14.26L15.8 22C18.86 22 20.56 22 20.9 22C21.51 22 22 21.51 22 20.9C22 19.12 22 4.88 22 3.1C22 2.49 21.51 2 20.9 2C20.9 2 20.9 2 20.9 2C10.22 2 4.29 2 3.1 2Z" id="a35coHnkNz"></path></defs><g><g><use xlink:href="#a35coHnkNz" opacity="1" fill="#347eff" fill-opacity="1"></use><g><use xlink:href="#a35coHnkNz" opacity="1" fill-opacity="0" stroke="#000000" stroke-width="1" stroke-opacity="0"></use></g></g></g></svg>