<?xml version="1.0" encoding="UTF-8" standalone="no"?>
<!DOCTYPE svg PUBLIC "-//W3C//DTD SVG 1.1//EN" "http://www.w3.org/Graphics/SVG/1.1/DTD/svg11.dtd">
<svg version="1.1" xmlns="http://www.w3.org/2000/svg" xmlns:xlink="http://www.w3.org/1999/xlink" preserveAspectRatio="xMidYMid meet" viewBox="0.8945299999999996 0.8947299999999991 24.21057 23.714587457979697" width="24" height="24"><defs><path d="M1.89 12C1.89 16.47 4.79 20.25 8.81 21.59C9.31 21.68 9.49 21.37 9.49 21.1C9.49 20.86 9.49 20.23 9.48 19.38C6.67 19.99 6.08 18.03 6.08 18.03C5.62 16.86 4.95 16.55 4.95 16.55C4.03 15.93 5.02 15.94 5.02 15.94C6.03 16.01 6.57 16.98 6.57 16.98C7.47 18.53 8.94 18.08 9.51 17.82C9.61 17.17 9.87 16.72 10.15 16.47C7.91 16.21 5.55 15.34 5.55 11.47C5.55 10.37 5.94 9.47 6.59 8.76C6.49 8.51 6.14 7.48 6.69 6.09C6.69 6.09 7.54 5.82 9.47 7.12C10.28 6.9 11.14 6.79 12 6.78C12.86 6.79 13.72 6.9 14.53 7.12C16.46 5.82 17.31 6.09 17.31 6.09C17.86 7.48 17.51 8.51 17.41 8.76C18.05 9.47 18.45 10.37 18.45 11.47C18.45 15.36 16.08 16.21 13.83 16.46C14.19 16.77 14.52 17.39 14.52 18.33C14.52 19.69 14.51 20.77 14.51 21.11C14.51 21.38 14.69 21.69 15.2 21.59C19.21 20.25 22.11 16.47 22.11 12.01C22.11 6.42 17.58 1.89 12 1.89C6.42 1.89 1.89 6.42 1.89 12Z" id="d3Iwrj3k79"></path></defs><g><g><use xlink:href="#d3Iwrj3k79" opacity="1" fill="#347eff" fill-opacity="1"></use><g><use xlink:href="#d3Iwrj3k79" opacity="1" fill-opacity="0" stroke="#000000" stroke-width="1" stroke-opacity="0"></use></g></g></g></svg>