<svg xmlns="http://www.w3.org/2000/svg" xmlns:xlink="http://www.w3.org/1999/xlink" viewBox="0.895 0.895 24.211 23.715" width="24" height="24"><defs><path d="M1.89 12c0 4.47 2.9 8.25 6.92 9.59.5.09.68-.22.68-.49 0-.24 0-.87-.01-1.72-2.81.61-3.4-1.35-3.4-1.35-.46-1.17-1.13-1.48-1.13-1.48-.92-.62.07-.61.07-.61 1.01.07 1.55 1.04 1.55 1.04.9 1.55 2.37 1.1 2.94.84.1-.65.36-1.1.64-1.35-2.24-.26-4.6-1.13-4.6-5 0-1.1.39-2 1.04-2.71-.1-.25-.45-1.28.1-2.67 0 0 .85-.27 2.78 1.03.81-.22 1.67-.33 2.53-.34.86.01 1.72.12 2.53.34 1.93-1.3 2.78-1.03 2.78-1.03.55 1.39.2 2.42.1 2.67.64.71 1.04 1.61 1.04 2.71 0 3.89-2.37 4.74-4.62 4.99.36.31.69.93.69 1.87 0 1.36-.01 2.44-.01 2.78 0 .27.18.58.69.48 4.01-1.34 6.91-5.12 6.91-9.58 0-5.59-4.53-10.12-10.11-10.12C6.42 1.89 1.89 6.42 1.89 12z" id="a"/></defs><use xlink:href="#a" fill="#347eff"/><use xlink:href="#a" fill-opacity="0" stroke="#000" stroke-opacity="0"/></svg>